<svg width="747" height="207" viewBox="0 0 747 207" fill="none" xmlns="http://www.w3.org/2000/svg">
<path d="M228.263 115V117.2H190.262V115C195.262 111.8 197.062 108.6 197.062 102.6V32.6C197.062 27.4 194.263 22.6 189.062 21V18.8L223.062 9V102.6C223.062 108.2 223.863 111.6 228.263 115Z" fill="black"/>
<path d="M162.248 118.2C151.248 118.2 145.448 109.2 145.448 99V58.2H139.648V56.2L171.248 27V50H186.248L181.848 58.2H171.248V95.8C171.248 100 172.648 105.4 177.848 105.4C181.848 105.4 185.248 102 186.448 98.4L188.648 99.2C185.448 110 173.448 118.2 162.248 118.2Z" fill="black"/>
<path d="M110.686 118.2C99.6859 118.2 93.8859 109.2 93.8859 99V58.2H88.0859V56.2L119.686 27V50H134.686L130.286 58.2H119.686V95.8C119.686 100 121.086 105.4 126.286 105.4C130.286 105.4 133.686 102 134.886 98.4L137.086 99.2C133.886 110 121.886 118.2 110.686 118.2Z" fill="black"/>
<path d="M65.7078 9.3999C73.5078 9.3999 79.9078 15.7999 79.9078 23.3999C79.9078 31.1999 73.5078 37.5999 65.7078 37.5999C57.9078 37.5999 51.5078 31.1999 51.5078 23.3999C51.5078 15.7999 57.9078 9.3999 65.7078 9.3999ZM85.5078 115V117.2H46.7078V115C51.7078 111.8 53.5078 108.6 53.5078 102.6V73.1999C53.5078 67.7999 50.7078 63.1999 45.5078 61.5999V59.3999L79.1078 49.5999V102.6C79.1078 108.4 80.5078 111.8 85.5078 115Z" fill="black"/>
<path d="M39.2 115V117.2H1.2V115C6.2 111.8 8 108.6 8 102.6V32.6C8 27.4 5.2 22.6 0 21V18.8L34 9V102.6C34 108.2 34.8 111.6 39.2 115Z" fill="black"/>
<path d="M746.268 182C746.268 197.2 731.668 206 717.668 206C711.868 206 706.068 204 700.068 204C696.668 204 693.468 204.8 690.268 205.8V177.8H692.468C696.468 189.4 703.668 203.6 717.668 203.6C722.668 203.6 727.668 200.4 727.668 195C727.668 181 690.468 185.8 690.468 159.6C690.468 144.8 705.468 135.8 718.868 135.8C723.668 135.8 728.268 136.6 733.068 137.4C733.668 137.6 735.468 137.6 736.068 137.6C738.668 137.6 740.268 136.6 742.668 135.6V156.2H740.268C739.068 148.4 729.868 138.4 721.668 138.4C716.868 138.4 710.668 141.2 710.668 146.8C710.668 161.2 746.268 157.4 746.268 182Z" fill="black"/>
<path d="M639.229 201V203.2H601.428V201C606.428 197.8 608.229 194.6 608.229 188.6V118.6C608.229 113.4 605.429 108.6 600.229 107V104.8L633.828 95V169.6L648.629 154.2C650.429 152.4 651.629 149.8 651.629 147.2C651.629 143 648.028 139.8 644.428 138.2V136H678.229V138.2C669.429 140.6 660.629 146.4 654.428 152.8L672.828 188.2C675.228 193 679.228 198 683.828 201V203.2H643.428V201C645.428 199.8 646.029 197.8 646.029 195.8C646.029 194 645.429 192.4 644.629 191L634.828 172.2L633.828 173V188.6C633.828 193 635.029 198.6 639.229 201Z" fill="black"/>
<path d="M542.432 150.2C547.632 141.6 555.832 135.6 566.232 135.6C577.232 135.6 587.032 143 587.032 154.6V188.6C587.032 194.2 588.832 198.4 593.832 201V203.2H555.232V201C560.232 197.8 561.032 194.4 561.032 188.6V155.6C561.032 151 557.232 146.8 552.432 146.8C545.832 146.8 542.432 154.4 542.432 160.2V188.6C542.432 194.2 544.032 197.6 548.432 201V203.2H509.232V201C514.232 198 516.432 194.6 516.432 188.6V159.2C516.432 153.8 513.632 149.2 508.432 147.6V145.4L542.432 135.6V150.2Z" fill="black"/>
<path d="M482.147 95.3999C489.947 95.3999 496.347 101.8 496.347 109.4C496.347 117.2 489.947 123.6 482.147 123.6C474.347 123.6 467.947 117.2 467.947 109.4C467.947 101.8 474.347 95.3999 482.147 95.3999ZM501.947 201V203.2H463.147V201C468.147 197.8 469.947 194.6 469.947 188.6V159.2C469.947 153.8 467.147 149.2 461.947 147.6V145.4L495.547 135.6V188.6C495.547 194.4 496.947 197.8 501.947 201Z" fill="black"/>
<path d="M422.705 152.4C425.905 144.4 432.505 136 441.905 136C449.905 136 455.505 143.6 455.505 151.2C455.505 158.4 449.705 164.2 442.505 164.2C432.105 164.2 430.505 152.4 427.305 152.4C423.705 152.4 422.705 160.2 422.705 163V188.6C422.705 194.8 424.905 198.2 430.305 201V203.2H389.905V201C394.905 197.8 396.705 194.6 396.705 188.6V159.2C396.705 154 393.905 149.2 388.705 147.6V145.4L422.705 135.6V152.4Z" fill="black"/>
<path d="M350.6 195.4C345.4 202 338 207 329.4 207C313 207 303 190.2 303 175.2C303 156.8 315.4 136 335.6 136C341 136 346.4 137.2 350.6 140.8V118.6C350.6 113.4 347.8 108.6 342.6 107V104.8L376.2 95V188.6C376.2 194.4 377.4 197.8 382.4 201V203.2H350.6V195.4ZM330.4 167C330.4 174.4 331.6 195.8 342.2 195.8C347 195.8 350.6 189.6 350.6 185.2V145C348.4 142.6 345 139.8 341.6 139.8C331.4 139.8 330.4 160.4 330.4 167Z" fill="black"/>
<path fill-rule="evenodd" clip-rule="evenodd" d="M302.653 86.5887L300.433 85.5797C295.79 93.2481 289.129 98.0913 279.844 98.0913C265.311 98.0913 260.063 84.9743 259.458 72.4628H298.414C300.433 72.4628 301.644 71.252 301.644 69.0322C301.644 54.3008 287.111 43 272.982 43C251.182 43 233.621 58.135 233.621 80.5347C233.621 91.2322 237.962 100.302 245.094 106.329L245 106.341C246.212 107.319 247.782 108.433 249.466 109.626C254.416 113.136 260.344 117.338 261.002 120.845C261.883 125.545 262.226 132.717 262.287 135.716C262.333 137.239 262.392 139.055 262.453 140.958C262.633 146.547 262.838 152.893 262.838 154.81C262.838 161.052 262.488 173.473 262.287 175.556C261.736 181.248 260.208 186.248 257.146 189.693C253.187 194.147 250.414 195.574 247.761 196.94C247.461 197.094 247.163 197.247 246.865 197.404C242.034 199.947 235.298 202.545 233.646 202.912C231.993 203.279 231.626 206.033 232.361 206.4C232.948 206.694 301.576 206.4 301.576 206.4C301.576 206.4 302.127 203.096 299.373 202.361C296.619 201.627 285.42 197.037 282.666 195.018C282.551 194.933 282.43 194.845 282.304 194.753C279.427 192.655 273.96 188.667 272.201 181.982C270.844 176.827 270.98 165.828 271.066 158.873C271.084 157.441 271.1 156.18 271.1 155.177C271.1 152.233 271.256 146.892 271.402 141.908C271.53 137.549 271.65 133.463 271.65 131.493C271.65 127.271 271.939 121.212 273.119 119.56C274.804 117.201 280.927 111.826 284.194 109.538C292.541 104.444 298.814 95.8004 302.653 86.5887ZM259.294 68.4832C259.473 61.4773 259.873 45.8252 268.541 45.8252C275.606 45.8252 276.615 58.135 276.615 63.3818C276.615 67.8214 274.193 69.8394 269.752 69.8394H259.256C259.269 69.437 259.281 68.982 259.294 68.4832Z" fill="black"/>
<path d="M343 32.0485C321.7 32.5049 311 41.5527 311 63C311 41.5527 297.645 32.1817 279 32.0485C297.645 32.1817 311 24.9112 311.025 0C311 25.0727 325.341 32.4269 343 32.0485Z" fill="black"/>
</svg>
